<?xml version="1.0" encoding="UTF-8"?>
<svg id="Layer_1" xmlns="http://www.w3.org/2000/svg" version="1.1" viewBox="0 0 960 960" fill="#000" width="20px" height="20px">
      <circle cx="480" cy="232" r="136"/>
      <circle cx="694.8" cy="604" r="136"/>
      <circle cx="265.2" cy="604" r="136"/>
      <path d="M241.9,439.6v-97.1l84.1-48.5c-6.6-16.3-10.5-33.4-11.6-51l-122.5,70.7v141.4c15.8-7.8,32.6-13,50-15.5Z"/>
      <path d="M634,294l84.1,48.5v97.1c17.4,2.5,34.2,7.6,50,15.5v-141.4l-122.5-70.7c-1.1,17.6-5,34.7-11.6,51Z"/>
      <path d="M564.1,706.4l-84.1,48.5-84.1-48.5c-10.9,13.9-23.7,25.8-38.4,35.6l122.5,70.7,122.5-70.7c-14.7-9.8-27.5-21.7-38.4-35.6Z"/></svg>