<?xml version="1.0" encoding="UTF-8"?>
<svg id="svg1" xmlns="http://www.w3.org/2000/svg" version="1.1" viewBox="0 0 960 960" width="20px" height="20px" fill="#000">
  <path d="M480,114.8l-85.4,62,14.4,44.3-189.9,138h0l-37.7-27.4-85.4,62.1,32.6,100.4h46.6l72.5,223.2-37.7,27.4,32.6,100.4h105.6l14.4-44.3h234.7s14.4,44.3,14.4,44.3h105.6s32.6-100.4,32.6-100.4l-37.7-27.4,72.5-223.2h46.6s32.6-100.4,32.6-100.4l-85.4-62-37.7,27.4-189.9-138,14.4-44.3-85.4-62ZM480.4,333.2l174.4,128.7-68.5,205.6-216.7-1.6-65.4-206.6,176.3-126Z"/>
</svg>