<?xml version="1.0" encoding="UTF-8"?>
<svg id="svg1" xmlns="http://www.w3.org/2000/svg" version="1.1" viewBox="0 0 960 960" width="20px" height="20px" fill="#000">
    <path d="M807.7,295.2c1.1-.7,1.2-8,.2-9.1-.4-.4-.6-9.4-.5-20,.1-16.6-.1-19.6-1.9-21.5-1.1-1.2-2.7-2.2-3.6-2.2s-1.6-1.8-1.6-6,.5-5.9,1.3-5.9c5.2,0,6.4-12.7,1.5-14.8-1.4-.6-2.8-2.2-3-3.6-.3-2.4-1-2.4-42-2.4h-41.7l-.4,2.6c-.2,1.6-1.5,2.9-3.3,3.3-2.8.7-2.9,1.2-2.6,7,.3,5.1.8,6.4,3,7.4,2.2,1,2.7,2.1,2.7,6.6s-.5,5.6-2.7,6.6c-1.5.6-3.2,2.3-3.7,3.6-.6,1.3-3.1,3.9-5.7,5.7-2.6,1.9-4.6,4.3-4.6,5.6,0,1.9-.8,2.3-4.8,2.3s-3.8-.2-4.3-.9v5.7c-3-.1-3.3-.7-3.3-3.5s-3.5-8.3-5.9-8.3-2.5-1.3-4.1-3c-2.3-2.3-4.2-3-8.4-3s-5.4-.5-5.4-1.2-1.1-1.2-2.4-1.2c-2.3,0-2.4-1-2.7-24.1l-.3-24.1-3.6-.6c-2.8-.5-3.1-.8-1.5-1.5,1.7-.7,2.1-2.3,2.1-8s0-7.2,3.4-7.2,4.5-1.2,6.2-3c1.5-1.6,3.6-3,4.7-3,1,0,2.8-1.7,4-3.7,1.8-3.2,2.1-7.4,2.1-35.2s-.1-31.7-2.5-35l-2.5-3.5h-35.9s-35.9,0-35.9,0l-2.1,3.7c-1.8,3.2-2.1,7.3-2.1,35.2s.3,32,2,35c1.1,1.9,2.8,3.5,3.7,3.5s2.7,1.3,4,3c1.5,2,3.5,3,5.8,3,3.4,0,3.5.1,3.5,6.4s.6,6.9,1.9,8c1.8,1.5,1.7,1.7-.9,2.3-2.4.6-2.9,1.5-3.2,6.6l-.4,5.9-10.9,6.1-10.9,6.2-1.8-5-1.8-5-17.5-.3-17.5-.3v-11.8h-15.3l-.7-7.7-57.5-.3-57.5-.3v8.4h-16.7v11.9h-34.2l-2.2,5.3-2.2,5.3-10.7-6.2-10.7-6.2-.6-5.8c-.5-4.9-1-5.9-3.4-6.5-2.6-.6-2.6-.8-.9-2.3,1.4-1.1,1.9-3.5,1.9-8s0-6.4,3.4-6.4,4.5-1.2,6.2-3c1.5-1.6,3.4-3,4.1-3s2.2-1.6,3.4-3.5c1.8-3,2-7.3,2-35.2s-.2-32.2-2-35.2l-2-3.5h-71.9s-2.5,4-2.5,4c-2.3,3.8-2.5,5.7-2.5,35.2s.1,31.4,2.5,34.7c1.4,1.9,3.1,3.5,4,3.5s2.8,1.3,4.3,3c1.7,1.8,4.1,3,6.2,3,3.3,0,3.4,0,3.4,7.2s.4,7.4,2.1,8c1.6.6,1.3,1-1.5,1.5l-3.6.6-.3,24.1c-.3,23.1-.4,24.1-2.7,24.1s-2.4.5-2.4,1.2-2.4,1.2-5.4,1.2-6.1.7-8.4,3c-1.6,1.6-3.4,3-3.8,3-1.5,0-3.4,1.8-4.6,3.9-.5,0-.9,0-1.5,0-3.9,0-4.8-.4-4.8-2.3s-2-3.7-4.6-5.6c-2.5-1.8-5.1-4.4-5.7-5.7-.6-1.3-2.3-3-3.8-3.6-2.2-1-2.7-2.1-2.7-6.6s.5-5.6,2.7-6.6c2.2-1,2.7-2.3,3-7.4.3-5.8.1-6.3-2.6-7-1.8-.5-3.1-1.7-3.3-3.3l-.4-2.6h-41.7c-41,0-41.7,0-42,2.4-.2,1.3-1.5,2.9-3,3.6-5,2.2-3.7,14.8,1.5,14.8s1.3,2.5,1.3,6-.5,6-1.6,6-2.5,1-3.6,2.2c-1.7,1.9-2,4.9-1.9,21.5,0,10.6-.2,19.6-.5,20-1,1-.9,8.4.2,9.1.5.3.5,14.1,0,30.7-.9,32.1-.7,35.5,2.1,35.5s1.8,1.1,1.8,2.4c0,2.2.8,2.4,8.3,2.4h8.3v5.7c.1,3.1.8,9.1,1.6,13.4l1.5,7.7h52.3l1.4-7.7c.8-4.3,1.5-10.3,1.5-13.4v-5.7h8.4c7.5,0,8.3-.2,8.3-2.4s.6-2.4,1.3-2.4c3.2,0,4.7-3.6,4.7-11.2s-.5-7.8-1.2-7.8-1.2-1.5-1.2-3.3,1.1-4,4.8-6.2c3.7-2.3,4.8-3.7,4.8-6.2s.4-3.2,4.3-3.3v8.9c.4.5.5,1.3.5,2.7,0,3.3,3.6,8.1,6.2,8.2.5,0,2.2,1.4,3.8,3,2.3,2.3,4.2,3,8.4,3s5.4.5,5.4,1.2,1.1,1.2,2.3,1.2c2.2,0,2.4,1,2.7,18.2l.3,18.2,12.5.6q12.5.6,31.6,9.4c10.5,4.8,19.9,9.6,20.8,10.7,1,1.1,3.8,3.5,6.3,5.3l4.5,3.3v27.2h27.3v40.5h-7.3c-6.4,0-7.8.4-10.7,3.2-2.8,2.7-3.3,2.9-3.3,1.1,0-4.8-6.5-11.3-16.8-16.7-9.2-4.8-11.1-5.4-18.1-5.4s-8,.5-8.3,1.5c-.4,1.2-1.2,1.2-3.7,0-4.4-2-39.6-2.1-40.3,0-.4,1.1-1.4,1.1-4.4,0-2.5-.9-12.4-1.4-26.3-1.4h-22.3l-4,5c-7.1,8.9-23.8,38.3-23.1,40.7.3,1.2-.2,3.8-1.1,5.6-1.2,2.4-1.4,4.2-.6,6.3,1,2.6-.5,5.7-11.3,24.1-7.4,12.6-12.4,22.4-12.4,24.3s-.6,10.1-1.3,18.5c-1,11.7-.9,17.1.2,22.9,1.2,6.2,1.2,7.7,0,8.5-2,1.3-1.5,4.5,4.5,27.4,2.7,10.2,4.9,19.9,4.9,21.7,0,1.8.6,3.5,1.2,3.9.7.4,1.2,1.8,1.2,3.2s2.1,4.5,4.6,7.1c4.2,4.2,5.2,4.6,11.1,4.6h6.5l2.6,6.2c1.4,3.4,3.9,7.8,5.6,9.7,1.6,1.9,3,3.8,3,4.2,0,.4-1.2,5.1-2.7,10.5-2.3,8.4-3,9.8-5.2,9.8s-3.6,1.6-5.3,3.9c-1.5,2.1-5.4,5.2-8.7,6.8-5.8,2.9-6,3.2-9.4,13.1-1.9,5.6-3.3,11.2-3.1,12.6.2,1.4-.6,3.8-1.6,5.4-1.1,1.6-5.3,13.5-9.4,26.5l-7.5,23.5,3,6.2,3,6.2-4.4,9.6c-4,8.7-6.6,19.8-5,21.4.4.4,42.9.6,94.5.6h93.9v-24.3l-7.1-9.2c-4.9-6.3-7.1-10.3-7.1-12.6s-.6-4-1.4-4.8c-1.1-1.1-.7-1.4,1.8-1.4,4.9,0,6.6-3.9,14.4-33.5,6.1-23.2,7.6-27.3,11-31.3,5.2-6.2,5.9-10.6,3.5-24.8-1.6-9.7-2.6-12.8-5.6-16.5-2-2.5-4.7-4.9-6-5.3-1.7-.5-2.2-1.4-1.6-2.7,4.7-11.1,7.1-36,3.9-39.2-1-1-1-1.8,0-3,1-1.2.9-3.5-.4-9-2.2-9.6-5.1-14.9-11.7-22.1l-5.4-5.8-6.2.8c-5.9.8-6.1.7-4.5-1.3.9-1.2,2.6-2.9,3.8-3.7,1.2-.9,1.8-2.1,1.4-2.7-.4-.6,1.7-1.1,4.7-1.1,5.2,0,5.6-.3,9.9-6.5,4.1-5.9,4.9-6.5,9-6.5,2.7,0,4.5-.6,4.5-1.5s2.8,1.3,6.3,4.8c6.2,6.1,6.4,6.2,13.7,6.2h7.4v22.2l11.2,10.9,11.1,10.9h120.2l11.1-10.9,11.2-10.9v-22.2h7.4c7.3,0,7.5,0,13.7-6.2,3.5-3.4,6.3-5.6,6.3-4.8s1.8,1.5,4.5,1.5c4,0,4.9.7,9,6.5,4.3,6.2,4.7,6.5,9.9,6.5s5.1.5,4.7,1.1c-.4.6.3,1.8,1.4,2.7,1.2.9,2.9,2.5,3.8,3.7,1.6,2,1.4,2.1-4.5,1.3l-6.2-.8-5.4,5.8c-6.7,7.2-9.5,12.5-11.7,22.1-1.3,5.5-1.4,7.8-.4,9,1,1.2,1,2,0,3-3.2,3.2-.8,28.1,3.9,39.2.6,1.4,0,2.2-1.6,2.7-1.3.4-4,2.8-6,5.3-2.9,3.7-3.9,6.7-5.6,16.5-2.4,14.2-1.7,18.6,3.5,24.8,3.4,4,4.9,8.2,11,31.3,7.8,29.5,9.5,33.5,14.4,33.5s2.9.3,1.8,1.4c-.8.8-1.4,3-1.4,4.8s-2.2,6.3-7.1,12.6l-7.1,9.2v24.3h93.9c51.6,0,94.2-.3,94.5-.6,1.6-1.6-1-12.7-5-21.4l-4.4-9.6,3-6.2,3-6.2-7.5-23.5c-4.1-12.9-8.4-24.8-9.4-26.5-1.1-1.6-1.8-4-1.6-5.4.2-1.4-1.2-7-3.1-12.6-3.3-9.9-3.5-10.2-9.4-13.1-3.3-1.6-7.2-4.7-8.7-6.8-1.6-2.3-3.7-3.9-5.3-3.9-2.2,0-2.9-1.4-5.2-9.8-1.5-5.4-2.7-10.1-2.7-10.5,0-.4,1.4-2.3,3-4.2,1.6-1.9,4.1-6.3,5.6-9.7l2.6-6.2h6.5c5.9,0,6.9-.4,11.1-4.6,2.5-2.5,4.6-5.7,4.6-7.1s.5-2.8,1.2-3.2c.7-.4,1.2-2.2,1.2-3.9,0-1.8,2.2-11.5,4.9-21.7,6-23,6.6-26.2,4.5-27.4-1.3-.8-1.3-2.3,0-8.5,1.1-5.8,1.2-11.1.2-22.9-.7-8.4-1.3-16.8-1.3-18.5s-5-11.7-12.4-24.3c-10.8-18.4-12.3-21.5-11.3-24.1.8-2.1.6-3.9-.6-6.3-.9-1.8-1.5-4.3-1.1-5.6.6-2.4-16.1-31.8-23.1-40.7l-4-5h-22.3c-13.9,0-23.8.5-26.3,1.4-3,1.1-4.1,1.1-4.4,0-.7-2-35.9-1.9-40.3,0-2.6,1.2-3.3,1.2-3.7,0-.3-1-3.1-1.5-8.3-1.5s-8.9.6-18.1,5.4c-10.3,5.5-16.8,11.9-16.8,16.7s-.5,1.6-3.3-1.1c-2.9-2.8-4.3-3.2-10.7-3.2h-7.3v-40.5h27.3v-33.2c1.7-1.4,3.3-2.8,3.7-3.3.7-.8,9.8-5.3,20.2-10.1q19-8.7,31.6-9.3l12.5-.6.3-18.2c.3-17.2.5-18.2,2.7-18.2s2.3-.5,2.3-1.2,2.4-1.2,5.4-1.2,6.1-.7,8.4-3c1.6-1.6,3.5-3,4.1-3,1.5,0,5.9-4.4,5.9-6s3.3-1.2,7.6-1.2h.8l-.3-9.5c3.8,0,4.3.4,4.3,3.3s1.1,3.9,4.8,6.2c3.7,2.3,4.8,3.7,4.8,6.2s-.5,3.3-1.2,3.3-1.2,3.4-1.2,7.8c0,7.6,1.5,11.2,4.7,11.2s1.3,1.1,1.3,2.4c0,2.2.8,2.4,8.3,2.4h8.3v5.7c0,3.1.8,9.1,1.6,13.4l1.4,7.7h52.3l1.5-7.7c.8-4.3,1.5-10.3,1.5-13.4v-5.7h8.4c7.5,0,8.3-.2,8.3-2.4s.8-2.4,1.8-2.4c2.8,0,3-3.5,2.1-35.5-.5-16.6-.5-30.4,0-30.7Z"/>
</svg>