<?xml version="1.0" encoding="UTF-8"?>
<svg id="Layer_1" xmlns="http://www.w3.org/2000/svg" version="1.1" viewBox="0 0 960 960" fill="#000" width="20px" height="20px">
      <path d="M480,96c-83,0-150.7,67.7-150.7,150.7,0,2.7.3,5.4.4,8.1-29.6,19.8-55.1,45.3-75,75-2.7-.1-5.4-.4-8.1-.4-83,0-150.7,67.7-150.7,150.7,0,83,67.7,150.7,150.7,150.7,2.7,0,5.4-.3,8.1-.4,19.8,29.6,45.3,55.1,74.9,74.9-.2,2.7-.4,5.4-.4,8.1,0,83,67.7,150.7,150.7,150.7,83,0,150.7-67.7,150.7-150.7,0-2.7-.3-5.4-.4-8.1,29.6-19.8,55.1-45.3,74.9-74.9,2.7.1,5.4.4,8.1.4,83,0,150.7-67.7,150.7-150.7,0-83-67.7-150.7-150.7-150.7-2.7,0-5.4.3-8,.4-19.8-29.6-45.4-55.1-75-75,.1-2.7.4-5.3.4-8.1,0-83-67.7-150.7-150.7-150.7h0ZM480,142.2c58,0,104.6,46.6,104.6,104.5,0,58-46.6,104.5-104.6,104.5-58,0-104.6-46.6-104.6-104.5,0-58,46.6-104.5,104.6-104.5ZM605.1,330.5c8.9,7.4,17,15.6,24.4,24.4-40.3,27.1-66.9,73.1-66.9,125.1,0,52,26.6,98,66.9,125.1-7.4,8.8-15.6,17-24.4,24.4-27.1-40.3-73.1-66.9-125.1-66.9-52,0-98,26.6-125.1,66.9-8.8-7.4-17-15.6-24.4-24.4,40.3-27.1,67-73.1,67-125.1,0-52-26.6-98-66.9-125.1,7.4-8.8,15.6-17,24.4-24.4,27.1,40.3,73.1,66.9,125.1,66.9,52,0,98-26.6,125.1-66.9h0ZM246.7,375.4c58,0,104.6,46.6,104.6,104.6,0,58-46.6,104.6-104.6,104.6-58,0-104.6-46.6-104.6-104.6,0-58,46.6-104.6,104.6-104.6ZM713.3,375.4c58,0,104.6,46.6,104.6,104.6,0,58-46.6,104.6-104.6,104.6-58,0-104.5-46.6-104.5-104.6,0-58,46.6-104.6,104.5-104.6ZM480,608.8c58,0,104.6,46.6,104.6,104.6,0,58-46.6,104.6-104.6,104.6-58,0-104.6-46.6-104.6-104.6,0-58,46.6-104.6,104.6-104.6Z"/>

</svg>