<?xml version="1.0" encoding="UTF-8"?>
<svg id="svg1" xmlns="http://www.w3.org/2000/svg" xmlns:svg="http://www.w3.org/2000/svg" xmlns:sodipodi="http://sodipodi.sourceforge.net/DTD/sodipodi-0.dtd" xmlns:inkscape="http://www.inkscape.org/namespaces/inkscape" version="1.1" viewBox="0 0 2291.6 227.6">
  <!-- Generator: Adobe Illustrator 29.5.0, SVG Export Plug-In . SVG Version: 2.1.0 Build 137)  -->
  <defs>
    <style>
      .st0 {
        fill: #fcb923;
      }

      .st0, .st1, .st2 {
        fill-rule: evenodd;
      }

      .st1 {
        fill: #fff;
      }

      .st2 {
        fill: #de4000;
      }
    </style>
  </defs>
  <sodipodi:namedview id="namedview1" bordercolor="#000000" borderopacity="0.25" inkscape:current-layer="layer1" inkscape:cx="1285.6507" inkscape:cy="105.06804" inkscape:deskcolor="#d1d1d1" inkscape:document-units="mm" inkscape:pagecheckerboard="0" inkscape:pageopacity="0.0" inkscape:showpageshadow="2" inkscape:window-height="1009" inkscape:window-maximized="1" inkscape:window-width="1920" inkscape:window-x="1912" inkscape:window-y="-8" inkscape:zoom="0.26173516" pagecolor="#ffffff"/>
  <g id="layer1" inkscape:groupmode="layer" inkscape:label="Layer 1">
    <g id="g1">
      <polygon id="polygon1" class="st2" points="320.5 226.8 320.5 184.7 266 184.7 266 117.7 320.5 117.7 320.5 75.6 169.3 75.6 169.3 117.7 223.8 117.7 223.8 184.7 169.3 184.7 169.3 226.8 320.5 226.8"/>
      <polygon id="polygon2" class="st2" points="109 130.2 0 130.2 0 172.4 39.2 172.4 92.5 226.9 159 226.9 104.4 172.4 151.2 172.4 151.2 75.7 0 75.7 0 117.8 109 117.8 109 130.2"/>
      <polygon id="polygon3" class="st2" points="604.6 117.8 659.1 117.8 659.1 75.7 507.9 75.7 507.9 117.8 562.4 117.8 562.4 226.9 604.6 226.9 604.6 117.8"/>
      <polygon id="polygon4" class="st2" points="380.7 130.9 380.7 118.5 489.8 118.5 489.8 76.4 338.5 76.4 338.5 227.6 380.7 227.6 380.7 173 489.8 173 489.8 130.9 380.7 130.9"/>
      <path id="path4" class="st2" d="M39.4,63.2c21.8,0,32.9-6.8,32.9-17.2v-4.7c0-7-2.9-11.8-9.7-13.9-5.8-1.8-11.6-2.2-24.2-2.5-10.8-.2-14.5-1.1-14.5-4.7v-1c0-3.2,2.6-5.5,16.2-5.5s13.4.4,13.4,2.4c0,3.3,3.4,4.5,8.5,4.5s8.9-1.1,8.9-5c0-8.2-10.7-14.4-31.9-14.4S6.7,7.1,6.7,17.1v3.8c0,7.1,3.7,10.9,9,12.8,6.2,2.4,14.4,2.4,21,2.6,5.4.2,9.5.3,13.3,1,3.4.7,4.9,2.2,4.9,5.5v2.5c0,3.4-4.1,5.6-16,5.6-7.1,0-14,0-15.1-4,0-3.1-3.4-4.2-8.7-4.2s-8.6,1.2-8.6,4.2v2.6c0,7.5,11.8,13.6,32.7,13.6h.1Z"/>
      <path id="path5" class="st2" d="M83.2,16.1h54.5c3.6,0,5-2.8,5-7s-1.4-7-5-7h-54.5c-3.6,0-4.9,2.8-4.9,7s1.4,7,4.9,7Z"/>
      <path id="path6" class="st2" d="M102.7,20c-5.2,0-8.7,1.7-8.7,6.2v16.3c0,12.5,7.4,19.4,26.2,19.4h2.3c3.6,0,5-2.6,5-7s-1.4-6.9-5-6.9h-3c-5.9,0-8.2-1.8-8.2-5.9v-15.8c0-4.4-3.3-6.2-8.5-6.1Z"/>
      <path id="path7" class="st2" d="M174.7,23.7c-3.6,0-5,2.6-5,7s1.4,6.9,5,6.9h17.5c3.6,0,5-2.8,5-6.9s-1.3-7-5-7h-17.5Z"/>
      <path id="path8" class="st2" d="M174.6,61.8h30.1c3.6,0,5-2.6,5-7s-1.3-6.9-5-6.9h-30.8c-5.9,0-8.2-1.8-8.2-5.9v-20.1c0-4.1,2.5-5.8,8.2-5.8h30.3c3.6,0,5-2.8,5-7s-1.3-7-5-7h-29.7c-18.8,0-26.2,6.9-26.2,19.4v20.9c0,12.5,7.3,19.3,26.2,19.3h0Z"/>
      <path id="path9" class="st2" d="M241.7,61.8h30.2c3.6,0,5-2.6,5-7s-1.3-6.9-5-6.9h-30.8c-5.8,0-8.2-1.8-8.2-5.9v-20.1c0-4.1,2.4-5.8,8.2-5.8h30.3c3.6,0,5-2.8,5-7s-1.3-7-5-7h-29.6c-18.8,0-26.2,6.9-26.2,19.4v20.9c0,12.5,7.3,19.3,26.2,19.3h0Z"/>
      <path id="path10" class="st2" d="M241.8,23.7c-3.6,0-5,2.6-5,7s1.3,6.9,5,6.9h17.5c3.6,0,5-2.8,5-6.9s-1.3-7-5-7h-17.5Z"/>
      <path id="path11" class="st2" d="M334.6,47.9h-26.3c-5.9,0-8.2-1.8-8.2-5.9V7.7c0-4.4-3.4-6.1-8.7-6.1s-8.5,1.7-8.5,6.1v34.8c0,12.5,7.3,19.4,26,19.4h25.8c3.6,0,5-2.6,5-7s-1.3-6.9-5-6.9Z"/>
      <path id="path12" class="st0" d="M506.5,51l23.8,10.9-19.7-12.4c25.9,6.1,50.2,13.1,73,20.8-19.3-8.8-39-16.5-59.6-23.2l42.8,3.5-49.8-11.2,15.7-15.4-20.6,6.8L516,0l-13.5,28.1-14.3-16.3,5.6,21.3-48.6-15.7,38.3,18.5c-49.9-11.7-105.6-17.1-172.8-14.6,66.2,4.1,124.7,12,176.9,23.1l-19.7.4,26.6,2.9-9.2,10.7,11.7-6.3-1.9,15.8,6.9-14.4,6.2,11.2-1.8-13.7Z"/>
    </g>
    <g id="g17">
      <path id="rect4" class="st1" d="M1011.4,0v227.6h63.4v-82.1h100.2v82.1h63.4V0h-227.1ZM1074.9,63.4h100.2v18.6h-100.2v-18.6Z" sodipodi:nodetypes="cccccccccccccc"/>
      <path id="rect8" class="st1" d="M751.2,0v227.6h63.4v-82.1h100.2v82.1h63.4V0h-63.4v82.1h-100.2V0h-63.4Z"/>
      <path id="rect10" class="st1" d="M1498.7,227.6V0h-63.4v78.5L1360,.6,1271.6,0v227.6h63.4V75.8l100.2,109v42.7h63.4Z" sodipodi:nodetypes="cccccccccccc"/>
      <path id="rect13" class="st1" d="M1531.9,0v227.6h227.1v-94.5h0v-51h-120v63.4h56.6v18.6h-100.2V63.4h163.7V0h-227.1Z" sodipodi:nodetypes="ccccccccccccccc"/>
      <path id="path17" class="st1" d="M1792.1,0v227.6h63.4v-82.1h100.2v82.1h63.4V0h-227.1ZM1855.5,63.4h100.2v18.6h-100.2v-18.6Z" sodipodi:nodetypes="cccccccccccccc"/>
      <polygon id="polygon2-2" class="st1" points="2111.3 145.6 2191.6 227.6 2291.6 227.6 2209.4 145.6 2279.9 145.6 2279.9 0 2052.3 0 2052.3 63.4 2216.4 63.4 2216.4 82.1 2052.3 82.1 2052.3 145.6 2111.3 145.6"/>
    </g>
  </g>
</svg>