<?xml version="1.0" encoding="UTF-8"?>
<svg id="Layer_1" xmlns="http://www.w3.org/2000/svg" version="1.1" viewBox="0 0 898.8 323.6">
  <!-- Generator: Adobe Illustrator 29.5.0, SVG Export Plug-In . SVG Version: 2.1.0 Build 137)  -->
  <defs>
    <style>
      .st0 {
        fill: #fcb923;
      }

      .st0, .st1 {
        fill-rule: evenodd;
      }

      .st1 {
        fill: #de4000;
      }
    </style>
  </defs>
  <polygon class="st1" points="235.7 167.1 308.4 167.1 308.4 256.4 235.7 256.4 235.7 312.6 437.4 312.6 437.4 256.4 364.7 256.4 364.7 167.1 437.4 167.1 437.4 111 235.7 111 235.7 167.1"/>
  <polygon class="st1" points="211.6 240.1 211.6 111.1 10 111.1 10 167.3 155.4 167.3 155.4 183.8 10 183.8 10 240.1 62.3 240.1 133.4 312.7 222 312.7 149.2 240.1 211.6 240.1"/>
  <polygon class="st1" points="687.2 111.1 687.2 167.3 759.9 167.3 759.9 312.7 816.1 312.7 816.1 167.3 888.8 167.3 888.8 111.1 687.2 111.1"/>
  <polygon class="st1" points="461.4 313.6 517.6 313.6 517.6 240.9 663.1 240.9 663.1 184.7 517.6 184.7 517.6 168.2 663.1 168.2 663.1 112 461.4 112 461.4 313.6"/>
  <path class="st1" d="M62.6,94.4c29.1,0,43.9-9,43.9-22.9v-6.3c0-9.4-3.8-15.8-12.9-18.6-7.8-2.4-15.5-3-32.3-3.4-14.4-.2-19.4-1.5-19.4-6.2v-1.3c0-4.3,3.5-7.4,21.6-7.4s17.9.5,17.9,3.2c0,4.4,4.5,6,11.3,6s11.9-1.4,11.9-6.7c0-10.9-14.3-19.2-42.5-19.2s-43.2,8.1-43.2,21.4v5.1c0,9.4,4.9,14.5,12,17,8.2,3.2,19.2,3.2,28,3.5,7.2.3,12.7.4,17.8,1.3,4.5.9,6.6,2.9,6.6,7.4v3.3c0,4.6-5.4,7.5-21.3,7.5-9.5.1-18.6-.1-20.1-5.3,0-4.1-4.5-5.6-11.6-5.6s-11.5,1.6-11.5,5.6v3.4c0,10,15.7,18.2,43.6,18.2Z"/>
  <path class="st1" d="M120.9,31.7h72.7c4.8,0,6.6-3.8,6.6-9.3s-1.8-9.3-6.6-9.3h-72.7c-4.8,0-6.6,3.7-6.6,9.3s1.8,9.3,6.6,9.3Z"/>
  <path class="st1" d="M147,36.9c-6.9,0-11.6,2.3-11.6,8.2v21.7c0,16.7,9.9,25.8,34.9,25.8h3.1c4.8,0,6.6-3.5,6.6-9.3s-1.8-9.2-6.6-9.2h-4c-7.8,0-11-2.4-11-7.9v-21.1c0-5.9-4.4-8.2-11.4-8.2Z"/>
  <path class="st1" d="M243,41.8c-4.8,0-6.6,3.5-6.6,9.3s1.8,9.2,6.6,9.2h23.3c4.8,0,6.6-3.7,6.6-9.2s-1.8-9.3-6.6-9.3h-23.3Z"/>
  <path class="st1" d="M242.8,92.6h40.2c4.8,0,6.6-3.5,6.6-9.3s-1.8-9.2-6.6-9.2h-41.1c-7.8,0-11-2.4-11-7.9v-26.8c0-5.4,3.3-7.8,11-7.8h40.4c4.8,0,6.6-3.8,6.6-9.3s-1.8-9.3-6.6-9.3h-39.6c-25.1,0-34.9,9.2-34.9,25.8v27.9c0,16.7,9.7,25.8,34.9,25.8Z"/>
  <path class="st1" d="M332.3,92.6h40.2c4.8,0,6.6-3.5,6.6-9.3s-1.8-9.2-6.6-9.2h-41.1c-7.8,0-11-2.4-11-7.9v-26.8c0-5.4,3.2-7.8,11-7.8h40.4c4.8,0,6.6-3.8,6.6-9.3s-1.8-9.3-6.6-9.3h-39.5c-25.1,0-34.9,9.2-34.9,25.8v27.9c0,16.7,9.7,25.8,34.9,25.8Z"/>
  <path class="st1" d="M332.4,41.8c-4.8,0-6.6,3.5-6.6,9.3s1.8,9.2,6.6,9.2h23.3c4.8,0,6.6-3.7,6.6-9.2s-1.8-9.3-6.6-9.3h-23.3Z"/>
  <path class="st1" d="M456.1,74.1h-35.1c-7.9,0-11-2.4-11-7.9V20.4c0-5.9-4.5-8.2-11.6-8.2s-11.4,2.3-11.4,8.2v46.4c0,16.7,9.7,25.8,34.7,25.8h34.4c4.8,0,6.6-3.5,6.6-9.3s-1.8-9.2-6.6-9.2Z"/>
  <path class="st0" d="M685.4,78.2l31.7,14.5-26.2-16.5c34.5,8.2,66.9,17.5,97.3,27.7-25.8-11.7-52-22-79.4-30.9l57,4.7-66.4-15,20.9-20.6-27.5,9.1,5.2-41-18,37.5-19.1-21.8,7.5,28.4-64.8-20.9,51.1,24.7c-66.5-15.6-140.8-22.8-230.4-19.5,88.3,5.4,166.3,16,235.9,30.8l-26.2.6,35.5,3.9-12.2,14.3,15.6-8.4-2.6,21,9.2-19.2,8.3,14.9-2.4-18.3Z"/>
</svg>