<?xml version="1.0" encoding="UTF-8" standalone="no"?>
<!-- Created with Inkscape (http://www.inkscape.org/) -->

<svg
   width="808.4231mm"
   height="80.274994mm"
   viewBox="0 0 808.4231 80.274994"
   version="1.1"
   id="svg1"
   xml:space="preserve"
   inkscape:version="1.3.2 (091e20e, 2023-11-25, custom)"
   sodipodi:docname="App Logo.svg"
   xmlns:inkscape="http://www.inkscape.org/namespaces/inkscape"
   xmlns:sodipodi="http://sodipodi.sourceforge.net/DTD/sodipodi-0.dtd"
   xmlns="http://www.w3.org/2000/svg"
   xmlns:svg="http://www.w3.org/2000/svg"><sodipodi:namedview
     id="namedview1"
     pagecolor="#ffffff"
     bordercolor="#000000"
     borderopacity="0.25"
     inkscape:showpageshadow="2"
     inkscape:pageopacity="0.0"
     inkscape:pagecheckerboard="0"
     inkscape:deskcolor="#d1d1d1"
     inkscape:document-units="mm"
     inkscape:zoom="0.26173516"
     inkscape:cx="1285.6507"
     inkscape:cy="105.06804"
     inkscape:window-width="1920"
     inkscape:window-height="1009"
     inkscape:window-x="1912"
     inkscape:window-y="-8"
     inkscape:window-maximized="1"
     inkscape:current-layer="layer1" /><defs
     id="defs1"><style
       id="style1">
      .st0 {
        fill: #fcb923;
      }

      .st0, .st1 {
        fill-rule: evenodd;
      }

      .st1 {
        fill: #de4000;
      }
    </style></defs><g
     inkscape:label="Layer 1"
     inkscape:groupmode="layer"
     id="layer1"
     transform="translate(-286.35399,-68.333622)"><g
       id="g1"
       transform="matrix(0.26458333,0,0,0.26458333,283.70816,65.635079)"><polygon
         class="st1"
         points="437.4,312.6 437.4,256.4 364.7,256.4 364.7,167.1 437.4,167.1 437.4,111 235.7,111 235.7,167.1 308.4,167.1 308.4,256.4 235.7,256.4 235.7,312.6 "
         id="polygon1" /><polygon
         class="st1"
         points="155.4,183.8 10,183.8 10,240.1 62.3,240.1 133.4,312.7 222,312.7 149.2,240.1 211.6,240.1 211.6,111.1 10,111.1 10,167.3 155.4,167.3 "
         id="polygon2" /><polygon
         class="st1"
         points="816.1,167.3 888.8,167.3 888.8,111.1 687.2,111.1 687.2,167.3 759.9,167.3 759.9,312.7 816.1,312.7 "
         id="polygon3" /><polygon
         class="st1"
         points="517.6,184.7 517.6,168.2 663.1,168.2 663.1,112 461.4,112 461.4,313.6 517.6,313.6 517.6,240.9 663.1,240.9 663.1,184.7 "
         id="polygon4" /><path
         class="st1"
         d="m 62.6,94.4 c 29.1,0 43.9,-9 43.9,-22.9 V 65.2 C 106.5,55.8 102.7,49.4 93.6,46.6 85.8,44.2 78.1,43.6 61.3,43.2 46.9,43 41.9,41.7 41.9,37 v -1.3 c 0,-4.3 3.5,-7.4 21.6,-7.4 18.1,0 17.9,0.5 17.9,3.2 0,4.4 4.5,6 11.3,6 6.8,0 11.9,-1.4 11.9,-6.7 0,-10.9 -14.3,-19.2 -42.5,-19.2 -28.2,0 -43.2,8.1 -43.2,21.4 v 5.1 c 0,9.4 4.9,14.5 12,17 8.2,3.2 19.2,3.2 28,3.5 7.2,0.3 12.7,0.4 17.8,1.3 4.5,0.9 6.6,2.9 6.6,7.4 v 3.3 c 0,4.6 -5.4,7.5 -21.3,7.5 -9.5,0.1 -18.6,-0.1 -20.1,-5.3 0,-4.1 -4.5,-5.6 -11.6,-5.6 -7.1,0 -11.5,1.6 -11.5,5.6 v 3.4 c 0,10 15.7,18.2 43.6,18.2 z"
         id="path4" /><path
         class="st1"
         d="m 120.9,31.7 h 72.7 c 4.8,0 6.6,-3.8 6.6,-9.3 0,-5.5 -1.8,-9.3 -6.6,-9.3 h -72.7 c -4.8,0 -6.6,3.7 -6.6,9.3 0,5.6 1.8,9.3 6.6,9.3 z"
         id="path5" /><path
         class="st1"
         d="m 147,36.9 c -6.9,0 -11.6,2.3 -11.6,8.2 v 21.7 c 0,16.7 9.9,25.8 34.9,25.8 h 3.1 c 4.8,0 6.6,-3.5 6.6,-9.3 0,-5.8 -1.8,-9.2 -6.6,-9.2 h -4 c -7.8,0 -11,-2.4 -11,-7.9 V 45.1 c 0,-5.9 -4.4,-8.2 -11.4,-8.2 z"
         id="path6" /><path
         class="st1"
         d="m 243,41.8 c -4.8,0 -6.6,3.5 -6.6,9.3 0,5.8 1.8,9.2 6.6,9.2 h 23.3 c 4.8,0 6.6,-3.7 6.6,-9.2 0,-5.5 -1.8,-9.3 -6.6,-9.3 z"
         id="path7" /><path
         class="st1"
         d="M 242.8,92.6 H 283 c 4.8,0 6.6,-3.5 6.6,-9.3 0,-5.8 -1.8,-9.2 -6.6,-9.2 h -41.1 c -7.8,0 -11,-2.4 -11,-7.9 V 39.4 c 0,-5.4 3.3,-7.8 11,-7.8 h 40.4 c 4.8,0 6.6,-3.8 6.6,-9.3 0,-5.5 -1.8,-9.3 -6.6,-9.3 h -39.6 c -25.1,0 -34.9,9.2 -34.9,25.8 v 27.9 c 0,16.7 9.7,25.8 34.9,25.8 z"
         id="path8" /><path
         class="st1"
         d="m 332.3,92.6 h 40.2 c 4.8,0 6.6,-3.5 6.6,-9.3 0,-5.8 -1.8,-9.2 -6.6,-9.2 h -41.1 c -7.8,0 -11,-2.4 -11,-7.9 V 39.4 c 0,-5.4 3.2,-7.8 11,-7.8 h 40.4 c 4.8,0 6.6,-3.8 6.6,-9.3 0,-5.5 -1.8,-9.3 -6.6,-9.3 h -39.5 c -25.1,0 -34.9,9.2 -34.9,25.8 v 27.9 c 0,16.7 9.7,25.8 34.9,25.8 z"
         id="path9" /><path
         class="st1"
         d="m 332.4,41.8 c -4.8,0 -6.6,3.5 -6.6,9.3 0,5.8 1.8,9.2 6.6,9.2 h 23.3 c 4.8,0 6.6,-3.7 6.6,-9.2 0,-5.5 -1.8,-9.3 -6.6,-9.3 z"
         id="path10" /><path
         class="st1"
         d="M 456.1,74.1 H 421 c -7.9,0 -11,-2.4 -11,-7.9 V 20.4 c 0,-5.9 -4.5,-8.2 -11.6,-8.2 -7.1,0 -11.4,2.3 -11.4,8.2 v 46.4 c 0,16.7 9.7,25.8 34.7,25.8 h 34.4 c 4.8,0 6.6,-3.5 6.6,-9.3 0,-5.8 -1.8,-9.2 -6.6,-9.2 z"
         id="path11" /><path
         class="st0"
         d="m 685.4,78.2 31.7,14.5 -26.2,-16.5 c 34.5,8.2 66.9,17.5 97.3,27.7 -25.8,-11.7 -52,-22 -79.4,-30.9 l 57,4.7 -66.4,-15 20.9,-20.6 -27.5,9.1 5.2,-41 -18,37.5 -19.1,-21.8 7.5,28.4 -64.8,-20.9 51.1,24.7 C 588.2,42.5 513.9,35.3 424.3,38.6 512.6,44 590.6,54.6 660.2,69.4 L 634,70 l 35.5,3.9 -12.2,14.3 15.6,-8.4 -2.6,21 9.2,-19.2 8.3,14.9 z"
         id="path12" /></g><g
       id="g17"
       transform="matrix(1.5049681,0,0,1.5049681,-278.41973,-73.658356)"
       style="stroke-width:0.664466"><path
         id="rect4"
         style="font-variation-settings:normal;opacity:1;vector-effect:none;fill:#000000;fill-opacity:1;fill-rule:evenodd;stroke:none;stroke-width:0.175806;stroke-linecap:butt;stroke-linejoin:miter;stroke-miterlimit:4;stroke-dasharray:none;stroke-dashoffset:0;stroke-opacity:1;-inkscape-stroke:none;stop-color:#000000;stop-opacity:1"
         d="m 612.35864,94.348829 v 53.339901 h 14.86989 v -19.23552 h 23.49469 v 19.23552 h 14.86989 V 94.348829 Z m 14.86989,14.869381 h 23.49469 v 4.36563 h -23.49469 z"
         sodipodi:nodetypes="cccccccccccccc" /><path
         id="rect8"
         style="font-variation-settings:normal;opacity:1;vector-effect:none;fill:#000000;fill-opacity:1;fill-rule:evenodd;stroke:none;stroke-width:0.175806;stroke-linecap:butt;stroke-linejoin:miter;stroke-miterlimit:4;stroke-dasharray:none;stroke-dashoffset:0;stroke-opacity:1;-inkscape-stroke:none;stop-color:#000000;stop-opacity:1"
         d="m 551.36098,94.348829 v 53.339891 h 14.86938 V 128.4532 h 23.4952 v 19.23552 h 14.86938 V 94.348829 h -14.86938 v 19.235001 h -23.4952 V 94.348829 Z" /><path
         id="rect10"
         style="font-variation-settings:normal;opacity:1;vector-effect:none;fill:#000000;fill-opacity:1;fill-rule:evenodd;stroke:none;stroke-width:0.175806;stroke-linecap:butt;stroke-linejoin:miter;stroke-miterlimit:4;stroke-dasharray:none;stroke-dashoffset:0;stroke-opacity:1;-inkscape-stroke:none;stop-color:#000000;stop-opacity:1"
         d="M 726.59077,147.68873 V 94.348839 h -14.86938 v 18.397321 l -17.6475,-18.265031 -20.71708,-0.1323 v 53.339901 h 14.86989 v -35.56217 l 23.49469,25.54263 v 10.01954 z"
         sodipodi:nodetypes="cccccccccccc" /><path
         id="rect13"
         style="font-variation-settings:normal;opacity:1;vector-effect:none;fill:#000000;fill-opacity:1;fill-rule:evenodd;stroke:none;stroke-width:0.175806;stroke-linecap:butt;stroke-linejoin:miter;stroke-miterlimit:4;stroke-dasharray:none;stroke-dashoffset:0;stroke-opacity:1;-inkscape-stroke:none;stop-color:#000000;stop-opacity:1"
         d="m 734.35447,94.348829 v 53.339891 h 53.23448 v -22.1573 h -5.2e-4 V 113.58383 H 759.4594 v 14.86989 h 13.25966 v 4.36563 H 749.22437 V 109.2182 h 38.36406 V 94.348829 Z"
         sodipodi:nodetypes="ccccccccccccccc" /><path
         id="path17"
         style="font-variation-settings:normal;opacity:1;vector-effect:none;fill:#000000;fill-opacity:1;fill-rule:evenodd;stroke:none;stroke-width:0.175806;stroke-linecap:butt;stroke-linejoin:miter;stroke-miterlimit:4;stroke-dasharray:none;stroke-dashoffset:0;stroke-opacity:1;-inkscape-stroke:none;stop-color:#000000;stop-opacity:1"
         d="m 795.35264,94.348829 v 53.339891 h 14.86989 V 128.4532 h 23.49469 v 19.23552 h 14.86989 V 94.348829 Z m 14.86989,14.869371 h 23.49469 v 4.36563 h -23.49469 z"
         sodipodi:nodetypes="cccccccccccccc" /><polygon
         class="st1"
         points="62.3,240.1 133.4,312.7 222,312.7 149.2,240.1 211.6,240.1 211.6,111.1 10,111.1 10,167.3 155.4,167.3 155.4,183.8 10,183.8 10,240.1 "
         id="polygon2-2"
         style="fill:#000000;fill-rule:evenodd;stroke-width:0.664466"
         transform="matrix(0.26458333,0,0,0.26458333,853.70498,64.953621)" /></g></g></svg>
